HIERARCHY
ROOT root
{
	OFFSET	0	13.1	24.9
	CHANNELS 6  Xposition Yposition Zposition Xrotation Yrotation Zrotation
	JOINT spine_1
	{
		OFFSET	0	9.99999	0
		CHANNELS 3  Xrotation Yrotation Zrotation
		JOINT spine_2
		{
			OFFSET	0	112	-10
			CHANNELS 3  Xrotation Yrotation Zrotation
			JOINT spine_3
			{
				OFFSET	0	206.5	19.3
				CHANNELS 3  Xrotation Yrotation Zrotation
				JOINT spine_4
				{
					OFFSET	0	110.4	14.6
					CHANNELS 3  Xrotation Yrotation Zrotation
					JOINT neck_1
					{
						OFFSET	0	71.8	-50.3
						CHANNELS 3  Xrotation Yrotation Zrotation
						JOINT neck_2
						{
							OFFSET	0	86.2	-25.8
							CHANNELS 3  Xrotation Yrotation Zrotation
							JOINT head_ee
							{
								OFFSET	0	179.8	-8.7
								CHANNELS 3  Xrotation Yrotation Zrotation
								End Site
								{
									OFFSET	1	0	0
								}
							}
						}
					}
					JOINT left_clavicle
					{
						OFFSET	-43.2	22.4	-70.8
						CHANNELS 3  Xrotation Yrotation Zrotation
						JOINT left_shoulder
						{
							OFFSET	-93.9	-5.79999	48.7
							CHANNELS 3  Xrotation Yrotation Zrotation
							JOINT left_elbow
							{
								OFFSET	-291.4	-30.8	15.2
								CHANNELS 3  Xrotation Yrotation Zrotation
								JOINT left_lowarm_twist
								{
									OFFSET	-110.7	-3.89999	13.6
									CHANNELS 3  Xrotation Yrotation Zrotation
									JOINT left_hand
									{
										OFFSET	-110.7	-3.89999	13.6
										CHANNELS 3  Xrotation Yrotation Zrotation
										JOINT left_ee
										{
											OFFSET	-80.8	-5.10001	12.1
											CHANNELS 3  Xrotation Yrotation Zrotation
											End Site
											{
												OFFSET	1	0	0
											}
										}
									}
								}
							}
						}
					}
					JOINT right_clavicle
					{
						OFFSET	43.2	22.4	-70.8
						CHANNELS 3  Xrotation Yrotation Zrotation
						JOINT right_shoulder
						{
							OFFSET	93.9	-5.79999	48.7
							CHANNELS 3  Xrotation Yrotation Zrotation
							JOINT right_elbow
							{
								OFFSET	291.4	-30.8	15.2
								CHANNELS 3  Xrotation Yrotation Zrotation
								JOINT right_lowarm_twist
								{
									OFFSET	110.7	-3.89999	13.6
									CHANNELS 3  Xrotation Yrotation Zrotation
									JOINT right_hand
									{
										OFFSET	110.7	-3.89999	13.6
										CHANNELS 3  Xrotation Yrotation Zrotation
										JOINT right_ee
										{
											OFFSET	80.8	-5.10001	12.1
											CHANNELS 3  Xrotation Yrotation Zrotation
											End Site
											{
												OFFSET	1	0	0
											}
										}
									}
								}
							}
						}
					}
				}
			}
		}
	}
	JOINT left_hip
	{
		OFFSET	-82.8	-127.5	0.300001
		CHANNELS 3  Xrotation Yrotation Zrotation
		JOINT left_knee
		{
			OFFSET	-28.2	-396.7	2.2
			CHANNELS 3  Xrotation Yrotation Zrotation
			JOINT left_ankle
			{
				OFFSET	-11.7	-411.3	35.4
				CHANNELS 3  Xrotation Yrotation Zrotation
				JOINT left_toes
				{
					OFFSET	0	-60	-88.6
					CHANNELS 3  Xrotation Yrotation Zrotation
					JOINT left_foot_ee
					{
						OFFSET	-22.5	-16.5	-42.2
						CHANNELS 3  Xrotation Yrotation Zrotation
						End Site
						{
							OFFSET	1	0	0
						}
					}
				}
			}
		}
	}
	JOINT right_hip
	{
		OFFSET	82.8	-127.5	0.300001
		CHANNELS 3  Xrotation Yrotation Zrotation
		JOINT right_knee
		{
			OFFSET	28.2	-396.7	2.2
			CHANNELS 3  Xrotation Yrotation Zrotation
			JOINT right_ankle
			{
				OFFSET	11.7	-411.3	35.4
				CHANNELS 3  Xrotation Yrotation Zrotation
				JOINT right_toes
				{
					OFFSET	0	-60	-88.6
					CHANNELS 3  Xrotation Yrotation Zrotation
					JOINT right_foot_ee
					{
						OFFSET	22.5	-16.5	-42.2
						CHANNELS 3  Xrotation Yrotation Zrotation
						End Site
						{
							OFFSET	1	0	0
						}
					}
				}
			}
		}
	}
}
MOTION
Frames: 10
Frame Time: 0.02
1237.12864342 747.514 -1778.54153369 8.56961128151 22.0396832176 -9.64123316207 -2.51198 0.410907 1.22664 -2.5112 0.332026 1.25029 -2.50275 0.00537422 1.29361 -2.50503 0.209591 1.27653 0.663507 4.06593 5.98118 0.755003 2.25811 6.87999 -0.0 0.0 -0.0 7.38526 -11.7964 14.1303 -11.1147 2.36041 68.1902 0.68182 -18.6626 0.112036 -29.9407 -1.9503 3.24869 0.399978 2.62754 3.75606 -0.0 0.0 -0.0 12.1336 21.8528 -24.0971 -9.28131 24.8606 -52.5323 0.887063 23.7216 -0.186303 -33.8581 2.3229 -3.58556 1.1158 8.99332 -3.71668 0.0 0.0 0.0 18.9255 10.317 0.721972 -70.7393 -3.46412 9.59441 36.674 -7.27557 -4.67058 35.8358 -0.0 -0.0 -0.0 0.0 -0.0 8.99697 -12.015 7.31763 -22.4653 -0.258215 -3.41576 18.8903 0.63773 2.61667 -8.62536 0.0 0.0 0.0 0.0 0.0 
1224.9009042 747.993 -1792.33869088 8.944821235 23.495016552 -9.9173604015 -2.56424 0.445164 1.25868 -2.56343 0.364175 1.28445 -2.55397 0.0266666 1.3348 -2.55638 0.23712 1.31384 -0.223038 3.84955 5.8949 -0.133 2.05307 6.74151 -0.0 0.0 -0.0 7.58281 -11.2514 14.5763 -12.3423 2.77328 68.3626 0.575554 -15.9137 0.0804475 -29.6324 -1.92197 3.22111 0.458841 2.4242 4.06387 -0.0 0.0 -0.0 12.4249 23.7736 -24.5913 -8.51184 24.8882 -51.6023 0.877184 23.4862 -0.182348 -33.7658 2.31386 -3.57792 0.949885 8.65303 -2.74025 0.0 0.0 0.0 23.77 10.1471 -0.549328 -72.9896 -3.75318 9.78749 35.8682 -6.59374 -4.58241 36.0331 -0.0 -0.0 -0.0 0.0 -0.0 7.06225 -13.9447 7.69273 -20.9862 -0.282613 -3.19011 19.2059 2.82113 2.67234 -8.37613 0.0 0.0 0.0 0.0 0.0 
1199.15237333 747.131 -1803.60539988 8.80098233924 26.468894709 -10.3387648571 -2.44153 0.441487 1.31718 -2.44063 0.356785 1.3426 -2.43091 0.00775579 1.38917 -2.43353 0.227031 1.37052 -0.912015 3.55619 5.70458 -0.826781 1.76506 6.48853 -0.0 0.0 -0.0 7.53336 -8.66386 14.5625 -13.6646 2.73216 68.6216 0.426213 -11.9222 0.0445043 -30.2754 -1.98122 3.27845 0.72943 3.16408 6.16383 -0.0 0.0 -0.0 12.6513 26.297 -24.8385 -6.68865 24.3072 -50.4565 0.865725 23.2121 -0.177806 -33.9763 2.33451 -3.59534 1.03153 9.87592 -2.76844 0.0 0.0 0.0 27.2642 7.64837 -0.516685 -72.5925 -3.70162 9.75424 34.0969 -5.0342 -4.3858 36.1984 -0.0 -0.0 -0.0 0.0 -0.0 6.38541 -16.3025 8.61454 -20.7723 -0.285658 -3.15744 20.7922 5.45291 2.89687 -8.27569 0.0 0.0 0.0 0.0 0.0 
1166.26978977 747.522 -1806.55148411 8.6874827324 30.7043572735 -11.0189577697 -2.31262 0.51251 1.4313 -2.31158 0.420405 1.461 -2.29927 0.0430742 1.51966 -2.30238 0.282509 1.4938 -1.1206 3.0361 5.29674 -1.04627 1.18483 5.98887 -0.0 0.0 -0.0 7.46229 -7.70079 14.4398 -15.7262 3.0834 68.9 0.390419 -10.9462 0.0374082 -29.8015 -1.93749 3.23626 0.983895 2.92897 7.76673 -0.0 0.0 -0.0 12.9568 26.3884 -25.5312 -8.71546 25.2936 -48.4002 0.872889 23.3836 -0.18064 -34.5764 2.39369 -3.64455 0.704002 12.0845 0.391467 0.0 0.0 0.0 31.2013 0.932934 1.76023 -66.6817 -2.96301 9.21834 34.5411 -0.058621 -4.37502 33.5769 -0.0 -0.0 -0.0 0.0 -0.0 5.59056 -19.2097 9.49387 -20.0039 -0.295593 -3.03996 20.5609 6.87018 2.88465 -7.50466 0.0 0.0 0.0 0.0 0.0 
1138.6170766 746.751 -1811.59834606 6.47859000527 35.2374204011 -10.2145506585 -1.90466 0.602009 1.49411 -1.90356 0.505727 1.52938 -1.88843 0.120222 1.60631 -1.89183 0.37237 1.56718 -1.3623 1.96477 3.45682 -1.33052 0.761748 3.90281 -0.0 0.0 -0.0 7.28105 -4.86734 14.1228 -16.6497 2.24679 68.4643 0.330676 -9.30302 0.0269048 -30.2072 -1.9749 3.27239 1.16469 -0.020267 7.79504 -0.0 0.0 -0.0 13.1449 26.948 -25.8965 -7.70993 26.7484 -45.9259 0.766184 20.784 -0.140512 -35.6221 2.49806 -3.72884 0.467594 14.2522 2.91617 0.0 0.0 0.0 34.3232 -3.52097 4.31165 -64.4692 -2.70141 8.99872 33.4976 1.6746 -4.26094 34.2105 -0.0 -0.0 -0.0 0.0 -0.0 6.00302 -22.1713 9.9412 -18.0617 -0.313673 -2.74251 21.9764 9.51348 3.09912 -8.63573 0.0 0.0 0.0 0.0 0.0 
1113.63177394 743.628 -1817.99134986 5.82942669006 39.5526687956 -9.81717855421 -1.7586 0.624341 1.35222 -1.75774 0.537039 1.3892 -1.74338 0.188307 1.47743 -1.74618 0.419252 1.42916 -0.79675 1.31061 2.62463 -0.778126 0.225222 2.94934 -0.0 0.0 -0.0 7.14363 -4.30084 13.8491 -18.1674 1.79488 68.9211 0.313335 -8.82308 0.0241734 -30.4336 -1.99589 3.29245 1.36895 -0.914759 8.81289 -0.0 0.0 -0.0 13.1459 27.4358 -25.8368 -6.93704 28.3339 -43.2955 0.691573 18.9107 -0.115177 -35.9062 2.52668 -3.7514 0.288687 16.1075 4.91537 0.0 0.0 0.0 35.5499 -5.24971 4.67461 -62.127 -2.43399 8.75552 33.7697 2.49539 -4.28415 35.0363 -0.0 -0.0 -0.0 0.0 -0.0 5.74355 -25.8742 10.4865 -17.2887 -0.318062 -2.62399 24.2653 12.4554 3.43495 -9.04316 0.0 0.0 0.0 0.0 0.0 
1085.52527629 738.131 -1819.07625707 4.77337931307 43.5660721413 -9.64718774058 -1.41095 0.597934 1.38345 -1.41003 0.5087 1.41868 -1.39617 0.162802 1.49829 -1.39908 0.397361 1.45379 -0.840133 0.707765 2.01282 -0.828451 -0.358222 2.2267 -0.0 0.0 -0.0 7.08669 -1.66391 13.7611 -19.8844 1.02896 68.0958 0.307031 -8.64826 0.0232159 -30.1963 -1.97389 3.27143 1.45897 -2.09812 8.94077 -0.0 0.0 -0.0 13.0293 27.0782 -25.6134 -5.31106 27.2193 -41.4937 0.775382 21.0118 -0.143793 -37.6556 2.70536 -3.88725 0.0897601 17.4008 6.80377 0.0 0.0 0.0 37.9171 -7.36415 6.19245 -56.9616 -1.88098 8.18226 33.139 3.15394 -4.21864 34.4272 -0.0 -0.0 -0.0 0.0 -0.0 6.66621 -29.2025 12.2966 -17.4364 -0.317346 -2.64665 26.1281 15.6004 3.73436 -7.96944 0.0 0.0 0.0 0.0 0.0 
1060.78224888 733.108 -1819.98735107 3.90290612265 47.1000672068 -9.27530101559 -1.03962 0.443735 1.39283 -1.03861 0.354216 1.41824 -1.02879 0.0220283 1.46163 -1.03168 0.252564 1.43981 -0.691065 0.562017 1.57575 -0.683917 -0.27012 1.74586 -0.0 0.0 -0.0 6.44646 -2.56144 12.4618 -19.2299 4.07582 69.7108 0.231554 -6.54368 0.0132371 -29.8408 -1.9411 3.23977 1.60958 -2.78027 9.68577 -0.0 0.0 -0.0 12.4795 26.3249 -24.4407 -4.91553 28.312 -39.8928 0.918235 24.4589 -0.199027 -38.358 2.77825 -3.94025 -0.4617 17.1188 10.4053 0.0 0.0 0.0 40.7716 -11.4124 8.77247 -50.0851 -1.22959 7.3473 32.8354 4.63993 -4.18439 34.957 -0.0 -0.0 -0.0 0.0 -0.0 6.03033 -30.5383 12.3616 -16.384 -0.321167 -2.48522 27.4398 16.0122 3.90161 -8.44076 0.0 0.0 0.0 0.0 0.0 
1044.11702311 731.216 -1833.60489658 2.41919578797 45.4361789202 -7.9655075291 -0.837436 0.405457 1.20964 -0.836682 0.327668 1.23299 -0.828875 0.0427988 1.27506 -0.831061 0.243618 1.2523 -1.14308 1.16233 1.78804 -1.1347 0.64914 2.03814 -0.0 0.0 -0.0 6.7464 2.77467 13.0851 -23.3269 -0.475673 68.4704 0.341129 -9.59172 0.0286207 -27.2851 -1.71125 3.00629 1.38534 -3.60718 7.81811 -0.0 0.0 -0.0 13.191 26.0947 -26.1078 -7.34804 27.8771 -35.7932 1.13932 29.4387 -0.299315 -40.8892 3.04622 -4.12379 -1.22899 19.5091 16.6361 0.0 0.0 0.0 39.8789 -11.0049 7.93492 -43.554 -0.708209 6.4885 32.1336 4.02711 -4.11402 35.5878 -0.0 -0.0 -0.0 0.0 -0.0 7.27826 -32.0519 14.0848 -17.7983 -0.315348 -2.70214 29.2819 21.0372 4.2834 -6.21333 0.0 0.0 0.0 0.0 0.0 
1039.7524712 731.216 -1829.56181771 2.44983350011 46.1372655583 -8.00825211178 -0.837436 0.405457 1.20964 -0.836682 0.327668 1.23299 -0.828875 0.0427988 1.27506 -0.831061 0.243618 1.2523 -1.14308 1.16233 1.78804 -1.1347 0.64914 2.03814 -0.0 0.0 -0.0 6.7464 2.77467 13.0851 -23.3269 -0.475673 68.4704 0.341129 -9.59172 0.0286207 -27.2851 -1.71125 3.00629 1.38534 -3.60718 7.81811 -0.0 0.0 -0.0 13.191 26.0947 -26.1078 -7.34804 27.8771 -35.7932 1.13932 29.4387 -0.299315 -40.8892 3.04622 -4.12379 -1.22899 19.5091 16.6361 0.0 0.0 0.0 39.8789 -11.0049 7.93492 -43.554 -0.708209 6.4885 32.1336 4.02711 -4.11402 35.5878 -0.0 -0.0 -0.0 0.0 -0.0 7.27826 -32.0519 14.0848 -17.7983 -0.315348 -2.70214 29.2819 21.0372 4.2834 -6.21333 0.0 0.0 0.0 0.0 0.0 
